<svg width="117" height="40" viewBox="0 0 117 40" fill="none" xmlns="http://www.w3.org/2000/svg">
<path fill-rule="evenodd" clip-rule="evenodd" d="M78.6685 30.6248V8.57471H82.2669V30.6248H78.6685ZM91.2097 30.5119L88.558 37.8248H91.9321L100.92 14.4248H97.3211L92.9408 26.0178L88.439 14.4248H84.6919L91.2097 30.5119ZM106.953 22.4348L101.056 30.6248H105.296L109.043 25.2698L112.761 30.6248H117L111.073 22.4348L116.851 14.4248H112.611L109.043 19.5998L105.415 14.4248H101.176L106.953 22.4348ZM63.018 30.4148C63.8242 30.8548 64.8094 31.0748 65.9738 31.0748C67.4268 31.0748 68.636 30.8048 69.6014 30.2648C70.3514 29.8415 71.028 29.2349 71.6314 28.4448V30.6248H74.7813V20.6798C74.7813 19.9798 74.7516 19.3348 74.6921 18.7448C74.6326 18.1448 74.4579 17.5598 74.1692 16.9898C73.6425 15.9198 72.8309 15.1498 71.7355 14.6798C70.6513 14.2098 69.3923 13.9748 67.9593 13.9748C66.0585 13.9748 64.5457 14.3898 63.4211 15.2198C62.3065 16.0498 61.5501 17.1498 61.152 18.5198L64.4362 19.5548C64.7049 18.7248 65.1777 18.1398 65.8544 17.7998C66.5312 17.4598 67.2328 17.2898 67.9593 17.2898C69.1635 17.2898 70.0193 17.5548 70.5274 18.0848C70.9499 18.5259 71.1928 19.1715 71.256 20.0216C70.6042 20.1196 69.9673 20.214 69.3476 20.3048C68.3325 20.4448 67.387 20.5998 66.5112 20.7698C65.6454 20.9398 64.8891 21.1298 64.2421 21.3398C63.3863 21.6298 62.6896 22.0048 62.1522 22.4648C61.6148 22.9148 61.2167 23.4548 60.9579 24.0848C60.6992 24.7048 60.5697 25.4048 60.5697 26.1848C60.5697 27.0748 60.7738 27.8898 61.1819 28.6298C61.5998 29.3698 62.2119 29.9648 63.018 30.4148ZM68.7803 27.7598C68.2031 28.0498 67.5065 28.1948 66.6904 28.1948C66.1231 28.1948 65.6454 28.1048 65.2572 27.9248C64.879 27.7448 64.5905 27.5048 64.3914 27.2048C64.1923 26.8948 64.0928 26.5398 64.0928 26.1398C64.0928 25.7898 64.1675 25.4848 64.3167 25.2248C64.476 24.9648 64.7 24.7348 64.9886 24.5348C65.2772 24.3348 65.6305 24.1598 66.0484 24.0098C66.4764 23.8698 66.9691 23.7448 67.5263 23.6348C68.0837 23.5148 68.7505 23.3898 69.5268 23.2598C70.023 23.1765 70.5831 23.0851 71.2064 22.9856C71.199 23.2613 71.1866 23.5776 71.1692 23.9348C71.1494 24.5248 71.0441 25.0498 70.8557 25.5098C70.7355 25.8798 70.5026 26.2748 70.1532 26.6948C69.8154 27.1148 69.3575 27.4698 68.7803 27.7598ZM50.2192 30.6248V14.4248H53.3989V17.0123C53.5202 16.7948 53.6545 16.5873 53.802 16.3898C54.1402 15.9398 54.5433 15.5698 55.0111 15.2798C55.4092 15.0098 55.8472 14.7998 56.3248 14.6498C56.8124 14.4898 57.3101 14.3948 57.8176 14.3648C58.3252 14.3248 58.8178 14.3448 59.2955 14.4248V17.7998C58.8178 17.6598 58.2654 17.6148 57.6384 17.6648C57.0215 17.7148 56.4641 17.8898 55.9665 18.1898C55.4688 18.4598 55.0609 18.8048 54.7423 19.2248C54.4339 19.6448 54.2049 20.1248 54.0557 20.6648C53.9064 21.1948 53.8318 21.7698 53.8318 22.3898V30.6248H50.2192ZM43.9145 30.8798C44.9396 30.9098 45.9845 30.8248 47.0494 30.6248V27.5948C46.0443 27.7448 45.1485 27.7848 44.3623 27.7148C43.5761 27.6448 43.0038 27.3098 42.6456 26.7098C42.4565 26.3998 42.352 25.9998 42.3321 25.5098C42.3222 25.0198 42.3171 24.4498 42.3171 23.7998V17.2598H47.0494V14.4248H42.3171V9.92473H38.7344V14.4248H35.8084V17.2598H38.7344V24.0098C38.7344 24.9298 38.7443 25.7548 38.7643 26.4848C38.7841 27.2148 38.9781 27.9298 39.3464 28.6298C39.7644 29.3998 40.3765 29.9648 41.1825 30.3248C41.9887 30.6748 42.8994 30.8598 43.9145 30.8798ZM27.9718 31.0748C25.9814 31.0748 24.3641 30.6248 23.1201 29.7248C21.876 28.8248 21.1197 27.5598 20.851 25.9298L24.5233 25.3598C24.7124 26.1598 25.1305 26.7898 25.7773 27.2498C26.4243 27.7098 27.2403 27.9398 28.2256 27.9398C29.0914 27.9398 29.7583 27.7698 30.2259 27.4298C30.7037 27.0798 30.9425 26.6048 30.9425 26.0048C30.9425 25.6348 30.8529 25.3398 30.6739 25.1198C30.5046 24.8898 30.1264 24.6698 29.5393 24.4598C28.9521 24.2498 28.0514 23.9848 26.8373 23.6648C25.4838 23.3048 24.4089 22.9198 23.6128 22.5098C22.8165 22.0898 22.2443 21.5948 21.896 21.0248C21.5477 20.4548 21.3736 19.7648 21.3736 18.9548C21.3736 17.9448 21.6373 17.0648 22.1647 16.3148C22.6921 15.5648 23.4287 14.9898 24.3741 14.5898C25.3196 14.1798 26.4342 13.9748 27.718 13.9748C28.972 13.9748 30.0817 14.1698 31.047 14.5598C32.0223 14.9498 32.8085 15.5048 33.4056 16.2248C34.0028 16.9448 34.3711 17.7898 34.5103 18.7598L30.838 19.4198C30.7485 18.7298 30.435 18.1848 29.8975 17.7848C29.37 17.3848 28.6635 17.1598 27.7778 17.1098C26.9318 17.0598 26.25 17.1898 25.7326 17.4998C25.215 17.7998 24.9563 18.2248 24.9563 18.7748C24.9563 19.0848 25.0608 19.3498 25.2698 19.5698C25.4788 19.7898 25.8968 20.0098 26.5238 20.2298C27.1607 20.4498 28.1061 20.7198 29.3601 21.0398C30.644 21.3698 31.669 21.7498 32.4354 22.1798C33.2116 22.5998 33.769 23.1048 34.1074 23.6948C34.4557 24.2848 34.6298 24.9998 34.6298 25.8398C34.6298 27.4698 34.0376 28.7498 32.8534 29.6798C31.6789 30.6098 30.0518 31.0748 27.9718 31.0748ZM7.29891 9.02469L0.521484 30.6246H4.22363L5.69089 25.9446H14.1586L15.6438 30.6246H19.346L12.5686 9.02469H7.29891ZM13.0875 22.5696L9.89885 12.5225L6.74898 22.5696H13.0875Z" fill="white"/>
</svg>
