<svg width="40" height="40" viewBox="0 0 40 40" fill="none" xmlns="http://www.w3.org/2000/svg">
<path fill-rule="evenodd" clip-rule="evenodd" d="M12.9184 10.5913C15.2675 8.87006 15.7882 5.55436 14.0815 3.18539L17.3627 0.781252C20.386 4.97775 19.4635 10.8513 15.3024 13.9002L15.3023 13.9002C11.1411 16.9492 5.31703 16.0189 2.29374 11.8224L5.57489 9.41824C7.28161 11.7873 10.5694 12.3124 12.9184 10.5913ZM1.88373 20.8051C4.64517 19.9003 7.61117 21.4243 8.50845 24.2092C9.40569 26.9942 7.89444 29.9853 5.133 30.8902L6.38624 34.7801C11.2781 33.1772 13.955 27.8786 12.3657 22.9453L12.3657 22.9453C10.7762 18.012 5.52216 15.3123 0.630466 16.9152L1.88373 20.8051ZM19.9882 32.6472C22.8918 32.6472 25.2456 35.021 25.2456 37.9492L29.3013 37.9492C29.3013 32.7621 25.1317 28.5571 19.9882 28.5571C14.8447 28.5571 10.6751 32.7621 10.6751 37.9492L14.7308 37.9492C14.7308 35.021 17.0846 32.6472 19.9882 32.6472ZM27.1237 10.6129C24.7747 8.89165 24.2539 5.57592 25.9606 3.20695L22.6795 0.802813C19.6562 4.99931 20.5787 10.8729 24.7398 13.9218L24.7398 13.9218C28.9011 16.9707 34.7252 16.0404 37.7484 11.844L34.4673 9.43982C32.7606 11.8088 29.4728 12.334 27.1237 10.6129ZM38.1178 20.84C35.3563 19.9351 32.3903 21.4592 31.4931 24.2441L31.4931 24.2442C30.5958 27.029 32.107 30.0202 34.8685 30.9251L33.6152 34.815C28.7235 33.2121 26.0464 27.9135 27.6359 22.9802C29.2252 18.0469 34.4793 15.3471 39.3711 16.9501L38.1178 20.84Z" fill="white"/>
</svg>
