<svg width="171" height="40" viewBox="0 0 171 40" fill="none" xmlns="http://www.w3.org/2000/svg">
<g clip-path="url(#clip0_4362_14873)">
<path fill-rule="evenodd" clip-rule="evenodd" d="M132.668 30.6248V8.57471H136.267V30.6248H132.668ZM145.21 30.5119L142.558 37.8248H145.932L154.92 14.4248H151.321L146.941 26.0178L142.439 14.4248H138.692L145.21 30.5119ZM160.953 22.4348L155.056 30.6248H159.296L163.043 25.2698L166.761 30.6248H171L165.073 22.4348L170.851 14.4248H166.611L163.043 19.5998L159.415 14.4248H155.176L160.953 22.4348ZM117.018 30.4148C117.824 30.8548 118.809 31.0748 119.974 31.0748C121.427 31.0748 122.636 30.8048 123.601 30.2648C124.351 29.8415 125.028 29.2349 125.631 28.4448V30.6248H128.781V20.6798C128.781 19.9798 128.752 19.3348 128.692 18.7448C128.633 18.1448 128.458 17.5598 128.169 16.9898C127.643 15.9198 126.831 15.1498 125.736 14.6798C124.651 14.2098 123.392 13.9748 121.959 13.9748C120.058 13.9748 118.546 14.3898 117.421 15.2198C116.306 16.0498 115.55 17.1498 115.152 18.5198L118.436 19.5548C118.705 18.7248 119.178 18.1398 119.854 17.7998C120.531 17.4598 121.233 17.2898 121.959 17.2898C123.163 17.2898 124.019 17.5548 124.527 18.0848C124.95 18.5259 125.193 19.1715 125.256 20.0216C124.604 20.1196 123.967 20.214 123.348 20.3048C122.333 20.4448 121.387 20.5998 120.511 20.7698C119.645 20.9398 118.889 21.1298 118.242 21.3398C117.386 21.6298 116.69 22.0048 116.152 22.4648C115.615 22.9148 115.217 23.4548 114.958 24.0848C114.699 24.7048 114.57 25.4048 114.57 26.1848C114.57 27.0748 114.774 27.8898 115.182 28.6298C115.6 29.3698 116.212 29.9648 117.018 30.4148ZM122.78 27.7598C122.203 28.0498 121.506 28.1948 120.69 28.1948C120.123 28.1948 119.645 28.1048 119.257 27.9248C118.879 27.7448 118.59 27.5048 118.391 27.2048C118.192 26.8948 118.093 26.5398 118.093 26.1398C118.093 25.7898 118.168 25.4848 118.317 25.2248C118.476 24.9648 118.7 24.7348 118.989 24.5348C119.277 24.3348 119.63 24.1598 120.048 24.0098C120.476 23.8698 120.969 23.7448 121.526 23.6348C122.084 23.5148 122.75 23.3898 123.527 23.2598C124.023 23.1765 124.583 23.0851 125.206 22.9856C125.199 23.2613 125.187 23.5776 125.169 23.9348C125.149 24.5248 125.044 25.0498 124.856 25.5098C124.736 25.8798 124.503 26.2748 124.153 26.6948C123.815 27.1148 123.358 27.4698 122.78 27.7598ZM104.219 30.6248V14.4248H107.399V17.0123C107.52 16.7948 107.655 16.5873 107.802 16.3898C108.14 15.9398 108.543 15.5698 109.011 15.2798C109.409 15.0098 109.847 14.7998 110.325 14.6498C110.812 14.4898 111.31 14.3948 111.818 14.3648C112.325 14.3248 112.818 14.3448 113.296 14.4248V17.7998C112.818 17.6598 112.265 17.6148 111.638 17.6648C111.021 17.7148 110.464 17.8898 109.966 18.1898C109.469 18.4598 109.061 18.8048 108.742 19.2248C108.434 19.6448 108.205 20.1248 108.056 20.6648C107.906 21.1948 107.832 21.7698 107.832 22.3898V30.6248H104.219ZM97.9145 30.8798C98.9396 30.9098 99.9845 30.8248 101.049 30.6248V27.5948C100.044 27.7448 99.1485 27.7848 98.3623 27.7148C97.5761 27.6448 97.0038 27.3098 96.6456 26.7098C96.4565 26.3998 96.352 25.9998 96.3321 25.5098C96.3222 25.0198 96.3171 24.4498 96.3171 23.7998V17.2598H101.049V14.4248H96.3171V9.92473H92.7344V14.4248H89.8084V17.2598H92.7344V24.0098C92.7344 24.9298 92.7443 25.7548 92.7643 26.4848C92.7841 27.2148 92.9781 27.9298 93.3464 28.6298C93.7644 29.3998 94.3765 29.9648 95.1825 30.3248C95.9887 30.6748 96.8994 30.8598 97.9145 30.8798ZM81.9718 31.0748C79.9814 31.0748 78.3641 30.6248 77.1201 29.7248C75.876 28.8248 75.1197 27.5598 74.851 25.9298L78.5233 25.3598C78.7124 26.1598 79.1305 26.7898 79.7773 27.2498C80.4243 27.7098 81.2403 27.9398 82.2256 27.9398C83.0914 27.9398 83.7583 27.7698 84.2259 27.4298C84.7037 27.0798 84.9425 26.6048 84.9425 26.0048C84.9425 25.6348 84.8529 25.3398 84.6739 25.1198C84.5046 24.8898 84.1264 24.6698 83.5393 24.4598C82.9521 24.2498 82.0514 23.9848 80.8373 23.6648C79.4838 23.3048 78.4089 22.9198 77.6128 22.5098C76.8165 22.0898 76.2443 21.5948 75.896 21.0248C75.5477 20.4548 75.3736 19.7648 75.3736 18.9548C75.3736 17.9448 75.6373 17.0648 76.1647 16.3148C76.6921 15.5648 77.4287 14.9898 78.3741 14.5898C79.3196 14.1798 80.4342 13.9748 81.718 13.9748C82.972 13.9748 84.0817 14.1698 85.047 14.5598C86.0223 14.9498 86.8085 15.5048 87.4056 16.2248C88.0028 16.9448 88.3711 17.7898 88.5103 18.7598L84.838 19.4198C84.7485 18.7298 84.435 18.1848 83.8975 17.7848C83.37 17.3848 82.6635 17.1598 81.7778 17.1098C80.9318 17.0598 80.25 17.1898 79.7326 17.4998C79.215 17.7998 78.9563 18.2248 78.9563 18.7748C78.9563 19.0848 79.0608 19.3498 79.2698 19.5698C79.4788 19.7898 79.8968 20.0098 80.5238 20.2298C81.1607 20.4498 82.1061 20.7198 83.3601 21.0398C84.644 21.3698 85.669 21.7498 86.4354 22.1798C87.2116 22.5998 87.769 23.1048 88.1074 23.6948C88.4557 24.2848 88.6298 24.9998 88.6298 25.8398C88.6298 27.4698 88.0376 28.7498 86.8534 29.6798C85.6789 30.6098 84.0518 31.0748 81.9718 31.0748ZM61.2989 9.02469L54.5215 30.6246H58.2236L59.6909 25.9446H68.1586L69.6438 30.6246H73.346L66.5686 9.02469H61.2989ZM67.0875 22.5696L63.8988 12.5225L60.749 22.5696H67.0875Z" fill="#111827"/>
<path fill-rule="evenodd" clip-rule="evenodd" d="M12.6802 10.5913C15.0292 8.87006 15.5499 5.55436 13.8433 3.18539L17.1244 0.781252C20.1477 4.97775 19.2252 10.8513 15.0641 13.9002L15.0641 13.9002C10.9028 16.9492 5.07875 16.0189 2.05546 11.8224L5.33661 9.41824C7.04333 11.7873 10.3311 12.3124 12.6802 10.5913ZM1.64544 20.8051C4.40689 19.9003 7.37288 21.4243 8.27017 24.2092C9.1674 26.9942 7.65616 29.9853 4.89471 30.8902L6.14796 34.7801C11.0398 33.1772 13.7167 27.8786 12.1274 22.9453L12.1274 22.9453C10.5379 18.012 5.28388 15.3123 0.392185 16.9152L1.64544 20.8051ZM19.7499 32.6472C22.6535 32.6472 25.0073 35.021 25.0073 37.9492L29.063 37.9492C29.063 32.7621 24.8934 28.5571 19.7499 28.5571C14.6064 28.5571 10.4368 32.7621 10.4368 37.9492L14.4925 37.9492C14.4925 35.021 16.8463 32.6472 19.7499 32.6472ZM26.8854 10.6129C24.5364 8.89165 24.0156 5.57592 25.7223 3.20695L22.4412 0.802813C19.4179 4.99931 20.3404 10.8729 24.5015 13.9218L24.5016 13.9218C28.6628 16.9707 34.4869 16.0404 37.5102 11.844L34.229 9.43982C32.5223 11.8088 29.2345 12.334 26.8854 10.6129ZM37.8795 20.84C35.118 19.9351 32.152 21.4592 31.2548 24.2441L31.2548 24.2442C30.3575 27.029 31.8687 30.0202 34.6303 30.9251L33.377 34.815C28.4852 33.2121 25.8081 27.9135 27.3976 22.9802C28.987 18.0469 34.241 15.3471 39.1328 16.9501L37.8795 20.84Z" fill="#284AFB"/>
</g>
<defs>
<clipPath id="clip0_4362_14873">
<rect width="171" height="40" fill="white"/>
</clipPath>
</defs>
</svg>
