<svg width="1156" height="88" viewBox="0 0 1156 88" fill="none" xmlns="http://www.w3.org/2000/svg">
<path fill-rule="evenodd" clip-rule="evenodd" d="M65.2749 21.12H85.947C92.7492 21.12 98.2628 26.6895 98.2628 33.5596V54.4404C98.2628 61.3105 92.7492 66.88 85.947 66.88H65.2749C58.4727 66.88 52.959 61.3105 52.959 54.4404V33.5596C52.959 26.6895 58.4727 21.12 65.2749 21.12ZM66.4406 35.4172C64.3801 37.672 63.0749 40.6955 63.0749 44V56.6618H72.0948V53.3224H66.4406L66.3953 44L66.4406 35.4172ZM88.1392 45.6974H84.7779C83.9848 50.0356 80.2055 53.3224 75.6629 53.3224H75.414V56.6618H75.6629C82.0437 56.6618 87.3152 51.8878 88.1392 45.6974ZM88.1469 42.3581C87.3461 36.141 82.0625 31.3382 75.6629 31.3382C73.5116 31.3382 71.4865 31.8812 69.7157 32.8382V36.8506C71.325 35.4943 73.3999 34.6776 75.6629 34.6776C80.2254 34.6776 84.0169 37.9925 84.7878 42.3581H88.1469ZM115.858 56.6864V31.3143H121.459V52.0355H131.562V56.6864H115.858ZM135.855 31.3143V56.6864H141.474V31.3143H135.855ZM153.156 56.6864H147.641V31.3143H162.125V35.9305H153.156V42.1434H161.489V46.7597H153.156V56.6864ZM166.887 56.6864H181.439V52.018H172.488V45.8225H180.803V41.2063H172.488V35.9305H181.439V31.3143H166.887V56.6864Z" fill="#111827"/>
<path fill-rule="evenodd" clip-rule="evenodd" d="M284.125 40.9699L284.165 36.2965L277.748 29.6315L258.96 29.4641L258.891 37.5219L273.89 37.6554L276.237 40.0939L276.161 48.9573L284.125 40.9699ZM258.809 47.03L258.77 51.7034L261.978 55.0359L265.186 58.3684L283.974 58.5358L284.043 50.478L269.044 50.3445L266.697 47.906L266.773 39.0426L258.809 47.03ZM397.023 54.499C395.757 54.4877 394.618 54.1443 393.605 53.4688C392.592 52.7933 391.795 51.8066 391.212 50.5088C390.631 49.2009 390.347 47.6078 390.364 45.7296C390.38 43.7908 390.7 42.1779 391.325 40.8908C391.949 39.6038 392.773 38.6467 393.797 38.0196C394.821 37.3824 395.936 37.0692 397.142 37.0799C398.072 37.0882 398.846 37.2567 399.467 37.5853C400.087 37.9039 400.587 38.3022 400.969 38.7802C401.351 39.2583 401.639 39.7305 401.832 40.1967L401.966 40.1979L402.038 31.7006L406.636 31.7415L406.443 54.3103L401.92 54.27L401.943 51.5587L401.735 51.5568C401.524 52.0195 401.218 52.4813 400.818 52.9423C400.419 53.3931 399.907 53.7673 399.281 54.0647C398.665 54.3621 397.912 54.5069 397.023 54.499ZM398.494 50.7857C399.235 50.7923 399.864 50.5909 400.382 50.1815C400.91 49.762 401.31 49.1799 401.584 48.435C401.867 47.6902 402.013 46.818 402.021 45.8183C402.03 44.8085 401.904 43.9339 401.643 43.1943C401.383 42.4447 400.992 41.8656 400.472 41.457C399.951 41.0383 399.32 40.8257 398.579 40.8191C397.827 40.8124 397.192 41.0188 396.674 41.4384C396.157 41.8579 395.761 42.4401 395.488 43.1849C395.215 43.9197 395.074 44.7769 395.066 45.7564C395.057 46.7358 395.183 47.6054 395.444 48.3652C395.704 49.1148 396.09 49.7039 396.6 50.1326C397.12 50.5614 397.751 50.7791 398.494 50.7857ZM332.908 39.6888C333.224 38.6414 333.74 37.8532 334.456 37.3244C335.173 36.7854 335.991 36.5201 336.91 36.5283C337.148 36.5304 337.395 36.5477 337.652 36.5803C337.919 36.6028 338.155 36.6454 338.363 36.7078L338.327 40.858C338.111 40.7854 337.809 40.7272 337.424 40.6833C337.048 40.6295 336.698 40.6011 336.371 40.5982C335.709 40.5923 335.11 40.7385 334.573 41.0366C334.037 41.3247 333.613 41.735 333.302 42.2675C333 42.7899 332.847 43.3944 332.841 44.0811L332.76 53.6539L328.176 53.6131L328.321 36.6789L332.756 36.7185L332.73 39.6872L332.908 39.6888ZM314.211 52.7616C315.441 53.4794 316.907 53.8459 318.607 53.8611C319.972 53.8732 321.175 53.6719 322.217 53.257C323.259 52.832 324.109 52.2388 324.768 51.4771C325.437 50.7055 325.88 49.8005 326.097 48.7623L321.858 48.4368C321.706 48.8494 321.475 49.2009 321.166 49.491C320.867 49.7812 320.509 50.0001 320.092 50.1479C319.676 50.2957 319.211 50.3673 318.696 50.3627C317.955 50.3561 317.299 50.1786 316.728 49.8301C316.168 49.4717 315.732 48.9679 315.421 48.3189C315.141 47.7258 314.991 47.0277 314.969 46.2244L326.266 46.325L326.277 45.0527C326.289 43.6087 326.102 42.3498 325.716 41.2759C325.33 40.1919 324.784 39.2933 324.078 38.5801C323.372 37.8568 322.546 37.3142 321.599 36.9523C320.653 36.5804 319.631 36.3895 318.534 36.3797C316.912 36.3652 315.495 36.7212 314.283 37.4476C313.08 38.1741 312.142 39.1907 311.468 40.4976C310.804 41.8045 310.465 43.3264 310.45 45.0632C310.435 46.8505 310.748 48.4035 311.389 49.722C312.041 51.0305 312.981 52.0437 314.211 52.7616ZM315.015 43.3315C315.072 42.7761 315.206 42.2724 315.417 41.8204C315.699 41.2169 316.099 40.7408 316.616 40.3919C317.143 40.0432 317.782 39.8721 318.534 39.8789C319.285 39.8856 319.911 40.0679 320.413 40.4258C320.924 40.7737 321.306 41.2669 321.557 41.9053C321.732 42.3482 321.844 42.8441 321.894 43.3929L315.015 43.3315ZM301.127 49.4942L308.821 39.5803L308.847 36.5055L295.484 36.3865L295.452 40.1428L303.298 40.2127L303.297 40.3339L295.096 50.516L295.072 53.3182L308.984 53.4421L309.016 49.6857L301.126 49.6154L301.127 49.4942ZM341.946 52.9783C343.167 53.7163 344.612 54.0927 346.283 54.1076C347.964 54.1226 349.415 53.772 350.638 53.0557C351.87 52.3295 352.819 51.318 353.482 50.0212C354.156 48.7144 354.5 47.1925 354.515 45.4557C354.53 43.6987 354.212 42.1659 353.561 40.8574C352.919 39.5389 351.989 38.5106 350.768 37.7726C349.559 37.0246 348.114 36.6432 346.432 36.6282C344.762 36.6133 343.31 36.969 342.078 37.6952C340.855 38.4114 339.907 39.4229 339.233 40.7297C338.569 42.0266 338.23 43.5535 338.215 45.3105C338.2 47.0474 338.513 48.5751 339.155 49.8936C339.806 51.2021 340.737 52.2303 341.946 52.9783ZM348.263 49.8081C347.745 50.2377 347.106 50.4491 346.344 50.4424C345.573 50.4355 344.927 50.2126 344.406 49.7737C343.896 49.3248 343.511 48.7155 343.251 47.9457C343 47.176 342.879 46.3013 342.887 45.3218C342.896 44.3322 343.032 43.4599 343.295 42.7049C343.568 41.9499 343.964 41.3576 344.482 40.928C345.01 40.4985 345.659 40.2871 346.431 40.294C347.192 40.3008 347.828 40.5236 348.338 40.9624C348.849 41.4011 349.229 42.0003 349.48 42.76C349.741 43.5197 349.867 44.3944 349.858 45.3839C349.85 46.3634 349.709 47.2357 349.435 48.0008C349.172 48.7659 348.781 49.3684 348.263 49.8081ZM363.933 54.2648C362.242 54.2498 360.792 53.8683 359.582 53.1203C358.372 52.3622 357.446 51.3289 356.805 50.0205C356.163 48.702 355.85 47.1844 355.865 45.4677C355.88 43.7309 356.219 42.209 356.883 40.9021C357.556 39.5953 358.505 38.5787 359.727 37.8524C360.95 37.1261 362.401 36.7704 364.082 36.7854C365.526 36.7983 366.784 37.0771 367.857 37.6219C368.941 38.1668 369.794 38.9267 370.419 39.9018C371.044 40.8768 371.38 42.0209 371.428 43.3342L367.097 43.2956C367.023 42.7294 366.859 42.2331 366.605 41.8067C366.352 41.3803 366.013 41.0491 365.59 40.813C365.167 40.577 364.674 40.4565 364.11 40.4515C363.398 40.4451 362.773 40.6365 362.237 41.0255C361.709 41.4046 361.294 41.9715 360.991 42.7262C360.697 43.4709 360.546 44.3784 360.537 45.4488C360.528 46.5191 360.663 47.4393 360.944 48.2093C361.234 48.9794 361.639 49.5688 362.16 49.9773C362.69 50.386 363.311 50.5935 364.024 50.5998C364.814 50.6069 365.484 50.3603 366.032 49.8603C366.581 49.3502 366.923 48.6463 367.059 47.7487L371.39 47.7873C371.309 49.0792 370.959 50.2173 370.337 51.2014C369.715 52.1754 368.864 52.9353 367.781 53.4811C366.698 54.0168 365.416 54.278 363.933 54.2648ZM376.445 53.2856C377.665 54.0236 379.11 54.4 380.782 54.4149C382.462 54.4299 383.914 54.0793 385.137 53.363C386.369 52.6368 387.317 51.6253 387.981 50.3285C388.654 49.0217 388.998 47.4999 389.013 45.763C389.028 44.006 388.711 42.4732 388.059 41.1647C387.418 39.8462 386.487 38.8179 385.267 38.0799C384.057 37.3319 382.612 36.9505 380.931 36.9355C379.26 36.9206 377.808 37.2763 376.576 38.0025C375.353 38.7187 374.405 39.7302 373.732 41.037C373.068 42.3339 372.729 43.8608 372.713 45.6178C372.699 47.3547 373.012 48.8824 373.653 50.2009C374.305 51.5094 375.235 52.5376 376.445 53.2856ZM382.761 50.1154C382.243 50.545 381.604 50.7564 380.843 50.7497C380.071 50.7428 379.425 50.5199 378.905 50.081C378.395 49.6321 378.009 49.0228 377.749 48.253C377.499 47.4833 377.377 46.6086 377.386 45.6292C377.394 44.6396 377.53 43.7672 377.794 43.0122C378.067 42.2572 378.463 41.6649 378.981 41.2353C379.509 40.8058 380.158 40.5944 380.929 40.6013C381.69 40.6081 382.327 40.8309 382.837 41.2696C383.347 41.7084 383.728 42.3076 383.979 43.0673C384.239 43.827 384.365 44.7016 384.357 45.6912C384.348 46.6707 384.207 47.543 383.934 48.3081C383.67 49.0732 383.279 49.6756 382.761 50.1154ZM412.279 53.6351C413.508 54.353 414.974 54.7195 416.674 54.7347C418.039 54.7468 419.242 54.5454 420.284 54.1306C421.326 53.7056 422.176 53.1123 422.835 52.3507C423.505 51.5791 423.947 50.6742 424.164 49.6359L419.925 49.3103C419.773 49.723 419.542 50.0744 419.233 50.3645C418.934 50.6547 418.576 50.8737 418.159 51.0215C417.743 51.1692 417.278 51.2408 416.763 51.2362C416.022 51.2297 415.366 51.0521 414.795 50.7037C414.234 50.3453 413.799 49.8415 413.488 49.1924C413.208 48.5993 413.058 47.9012 413.036 47.0979L424.333 47.1986L424.344 45.9263C424.356 44.4822 424.169 43.2233 423.783 42.1494C423.397 41.0654 422.851 40.1668 422.145 39.4536C421.439 38.7303 420.613 38.1878 419.666 37.8259C418.72 37.4539 417.698 37.263 416.601 37.2533C414.979 37.2388 413.563 37.5948 412.35 38.3212C411.147 39.0476 410.209 40.0643 409.535 41.3711C408.871 42.6781 408.532 44.1999 408.517 45.9368C408.502 47.7241 408.815 49.277 409.456 50.5955C410.108 51.904 411.049 52.9173 412.279 53.6351ZM413.082 44.2051C413.139 43.6497 413.273 43.1459 413.484 42.6939C413.767 42.0905 414.166 41.6144 414.683 41.2655C415.21 40.9168 415.849 40.7457 416.601 40.7524C417.352 40.7591 417.979 40.9414 418.48 41.2993C418.991 41.6472 419.373 42.1404 419.624 42.7789C419.799 43.2218 419.911 43.7176 419.961 44.2664L413.082 44.2051ZM430.975 40.5624C431.291 39.5149 431.807 38.7267 432.524 38.1979C433.24 37.6589 434.058 37.3936 434.978 37.4018C435.215 37.4039 435.462 37.4212 435.719 37.4539C435.986 37.4764 436.223 37.5189 436.43 37.5813L436.394 41.7316C436.178 41.659 435.876 41.6007 435.491 41.5569C435.116 41.5031 434.765 41.4747 434.439 41.4718C433.776 41.4659 433.177 41.612 432.64 41.9102C432.104 42.1983 431.68 42.6085 431.369 43.141C431.068 43.6635 430.914 44.268 430.908 44.9547L430.827 54.5274L426.243 54.4866L426.388 37.5525L430.823 37.592L430.798 40.5608L430.975 40.5624Z" fill="#111827"/>
<path fill-rule="evenodd" clip-rule="evenodd" d="M506.021 24.7051C504.728 25.2881 488.338 41.0843 487.75 42.314C486.336 45.2736 488.991 48.4804 492.339 47.8567C492.943 47.7442 493.801 47.1817 494.947 46.1478C496.969 44.3242 498.252 43.685 499.908 43.6774C501.491 43.6701 502.453 44.0909 504.15 45.5312C506.167 47.2433 508.551 47.6998 510.573 46.7612C512.02 46.0897 519.056 39.1944 519.673 37.8434C520.364 36.3296 520.331 34.9419 519.567 33.419C518.756 31.8036 511.711 25.0609 510.317 24.5666C508.978 24.0917 507.259 24.1471 506.021 24.7051ZM558.371 41.3974V51.0008H560.025H561.679V41.3974V31.7939H560.025H558.371V41.3974ZM540.482 37.2586C540.383 37.3574 540.302 41.6269 540.302 46.7468V56.0553H541.956H543.61V52.8962C543.61 49.9907 543.78 49.2406 544.263 50.0162C544.624 50.5962 546.564 51.2424 547.96 51.248C551.016 51.2599 553.26 49.9748 554.476 47.5153C555.895 44.6469 555.204 40.6539 552.961 38.7466C550.828 36.9341 547.511 36.553 545.051 37.838C543.64 38.575 543.64 38.575 543.561 37.9012C543.488 37.2725 543.389 37.2224 542.073 37.1532C541.297 37.1125 540.582 37.1597 540.482 37.2586ZM568.394 37.3409C567.957 37.4443 567.072 37.7827 566.427 38.093C565.254 38.6569 565.254 38.6569 565.89 39.9033C566.526 41.1495 566.526 41.1495 567.602 40.6036C569.059 39.8646 571.736 39.6741 572.823 40.2321C573.731 40.6984 574.15 41.3307 574.15 42.2341C574.15 42.8472 574.13 42.8521 571.159 42.9635C566.978 43.1204 565.537 43.9069 564.986 46.3323C564.548 48.2613 565.915 50.4188 567.926 50.9733C570.117 51.5775 573.363 51.0367 574.049 49.953C574.205 49.7076 574.304 49.8254 574.401 50.369C574.534 51.112 574.567 51.1272 576.061 51.1272H577.585L577.584 46.1991C577.583 41.7087 577.535 41.1677 577.042 40.1065C576.419 38.7668 575.231 37.7769 573.768 37.3801C572.635 37.0728 569.617 37.0508 568.394 37.3409ZM579.253 37.279C579.261 37.3897 580.623 40.5508 582.279 44.3037C585.291 51.1272 585.291 51.1272 584.745 52.1328C583.926 53.6387 582.703 53.8682 580.509 52.9271C580.234 52.8088 579.944 53.0913 579.491 53.919C578.865 55.0636 578.863 55.0795 579.367 55.3762C581.659 56.727 584.611 56.5544 586.324 54.9691C586.654 54.663 587.204 53.8682 587.545 53.2025C588.355 51.6235 594.509 37.556 594.509 37.2851C594.509 37.1706 593.813 37.111 592.962 37.1522L591.415 37.2275L589.321 42.0858C588.169 44.7578 587.166 47.0045 587.092 47.0781C587.018 47.1519 585.994 44.9656 584.816 42.2197L582.675 37.2275L580.957 37.1527C580.013 37.1117 579.246 37.1686 579.253 37.279ZM596.665 37.4082C596.594 37.5911 596.567 40.7527 596.605 44.4341L596.673 51.1272L598.263 51.2025L599.854 51.2776L599.86 47.538C599.869 42.1063 600.287 40.8682 602.358 40.1416C603.289 39.8151 603.544 39.8151 604.475 40.1416C606.428 40.8267 606.582 41.2756 606.688 46.6062L606.781 51.2763L608.344 51.2017L609.906 51.1272L610.034 46.6922C610.139 43.0252 610.239 42.1394 610.61 41.5781C611.574 40.1199 613.429 39.5384 614.901 40.2323C616.411 40.9437 616.51 41.2953 616.65 46.4518L616.778 51.1272L618.368 51.2025L619.959 51.2776L619.956 46.2744C619.954 41.568 619.919 41.196 619.361 40.0067C618.58 38.3415 617.19 37.3725 615.305 37.1795C613.189 36.9626 611.729 37.2757 610.252 38.2629C608.936 39.1418 608.936 39.1418 608.276 38.5141C606.601 36.9209 603.672 36.6268 601.302 37.814C599.879 38.5267 599.879 38.5267 599.803 37.8772C599.732 37.2737 599.622 37.2222 598.26 37.1517C597.225 37.0981 596.756 37.1736 596.665 37.4082ZM624.031 41.8578C624.031 45.5281 624.123 46.882 624.433 47.7852C624.914 49.1886 626.389 50.6025 627.767 50.9826C630.015 51.6026 632.954 51.0708 633.956 49.8626C634.314 49.4317 634.346 49.4574 634.465 50.2646C634.593 51.1272 634.593 51.1272 636.12 51.1272H637.647V44.1773V37.2275L636.056 37.1522L634.465 37.0771V40.4664C634.465 44.7492 634.175 46.3502 633.228 47.2909C631.782 48.7276 629.135 48.6457 628 47.1291C627.512 46.4768 627.46 46.0227 627.387 41.7588L627.308 37.1011H625.669H624.031V41.8578ZM644.075 37.4607C641.816 38.2614 640.83 39.504 640.829 41.5528C640.827 43.826 641.922 44.6807 645.838 45.4629C647.154 45.726 648.456 46.0601 648.729 46.2054C649.401 46.5628 649.364 47.5911 648.66 48.0801C647.759 48.7074 644.84 48.5931 643.046 47.8607C641.574 47.2595 641.574 47.2595 640.955 48.4741C640.231 49.8919 640.281 49.97 642.355 50.6609C643.344 50.9905 644.501 51.1272 646.299 51.1272C648.505 51.1272 649.014 51.043 650.117 50.4954C651.741 49.6887 652.535 48.5348 652.534 46.983C652.533 45.5291 651.867 44.4 650.682 43.8415C650.189 43.6095 648.658 43.1953 647.279 42.921C645.437 42.5546 644.655 42.2806 644.331 41.8864C643.815 41.2604 644.056 40.5834 644.969 40.0946C645.77 39.6657 648.407 39.7428 649.575 40.2291C650.117 40.4547 650.663 40.6392 650.787 40.6392C651.171 40.6392 652.153 38.3905 651.886 38.1249C651.001 37.2477 645.9 36.814 644.075 37.4607ZM658.74 37.5098C657.238 38.0387 655.614 39.5247 654.92 41.0041C654.02 42.9233 654.065 45.6648 655.027 47.4925C656.642 50.5623 660.782 52.035 664.594 50.8957C665.741 50.553 667.562 49.3993 667.539 49.0293C667.533 48.9323 667.153 48.4309 666.694 47.9153C665.86 46.9782 665.86 46.9782 664.95 47.6212C663.611 48.5671 661.364 48.7258 659.819 47.9833C658.753 47.4708 657.624 46.1807 657.624 45.4743C657.624 45.2701 659.202 45.1882 663.133 45.1882H668.641L668.488 43.5582C668.21 40.5985 666.55 38.3435 664.019 37.4873C662.607 37.0094 660.132 37.02 658.74 37.5098ZM663.154 40.1247C664.167 40.5811 665.256 41.8614 665.258 42.5978C665.259 42.8366 664.327 42.9137 661.442 42.9137C658.946 42.9137 657.624 42.822 657.624 42.6484C657.624 42.2339 658.312 41.016 658.751 40.6551C659.25 40.243 660.899 39.6523 661.569 39.645C661.849 39.642 662.562 39.8578 663.154 40.1247ZM523.123 40.2816C522.703 40.507 520.012 42.9946 517.142 45.8097C514.273 48.6247 511.548 51.183 511.087 51.4949C510.041 52.2025 507.685 52.457 506.321 52.0099C505.787 51.8348 504.644 51.0397 503.781 50.2427C501.992 48.5891 500.819 48.097 499.281 48.3551C497.865 48.5926 496.328 50.0165 496.016 51.3799C495.555 53.3928 495.95 54.0398 500.306 58.4129C505.067 63.1926 505.919 63.7666 508.235 63.7547C509.281 63.7494 510.181 63.5909 510.683 63.3233C511.558 62.857 527.344 47.6004 528.306 46.2913C529.593 44.5402 529.19 42.0666 527.395 40.7075C526.295 39.874 524.261 39.6713 523.123 40.2816ZM550.155 40.5884C552.601 42.3175 552.228 46.7005 549.525 48C545.64 49.8674 541.993 45.2666 544.455 41.6054C545.634 39.853 548.414 39.3572 550.155 40.5884ZM574.15 46.0894C574.15 47.2636 573.802 47.8721 572.854 48.3591C571.941 48.8277 569.854 48.8956 569.076 48.4822C568.414 48.1307 568.022 47.2118 568.218 46.4705C568.456 45.5658 569.494 45.2094 571.923 45.1983C574.15 45.1882 574.15 45.1882 574.15 46.0894Z" fill="#111827"/>
<path fill-rule="evenodd" clip-rule="evenodd" d="M856.798 61.3551V55.9748H850.37C849.131 55.9748 848.445 55.2208 848.445 53.8157V26.0228H834.408V30.872H842.46V54.3898C842.46 58.7849 844.921 61.3551 849.156 61.3551H856.798ZM826.699 49.6176V56.4717H836.685V61.3551H814.37V56.5059H820.723V41.47H815.014V36.5694H826.423V40.6218H826.749C827.302 39.3744 828.196 38.3183 829.324 37.582C830.452 36.8458 831.765 36.4612 833.102 36.4752H837.287V42.3182H832.826C829.001 42.3182 826.699 45.1884 826.699 49.6176ZM759.998 36.5694H766.25L772.051 54.047H772.377L778.128 36.5694H784.522L775.642 61.3551H768.879L759.998 36.5694ZM804.661 44.1687C804.541 44.3922 804.774 44.7013 805.125 45.1646C805.702 45.9271 806.594 47.1069 806.745 49.0093C807.105 53.4644 804.46 56.4459 800.208 56.4459C796.257 56.4459 793.771 53.1561 793.771 49.0093C793.771 43.8004 797.354 40.2277 801.94 40.2277C806.385 40.2277 810.034 43.2349 812.437 45.3682C811.206 39.6451 807.105 35.944 801.555 35.944C800.117 35.9067 798.691 36.2354 797.407 36.9009C796.123 37.5663 795.02 38.5475 794.198 39.7565H793.872V26.0485H787.895V61.3551H793.754V58.2023H794.081C794.883 59.4072 795.97 60.3848 797.24 61.044C798.51 61.7032 799.923 62.0224 801.347 61.9719C808.118 61.9719 812.763 56.7886 812.763 49.1207C812.763 48.2126 812.704 47.6557 812.704 47.6557C810.101 45.411 805.062 43.3633 804.661 44.1687ZM797.549 53.289C796.767 52.5889 796.26 51.6223 796.123 50.5687C797.506 51.0241 798.993 51.0241 800.375 50.5687C801.736 50.0069 803.257 50.0069 804.619 50.5687C804.482 51.6223 803.975 52.5889 803.194 53.289C802.413 53.989 801.41 54.3749 800.372 54.3749C799.333 54.3749 798.33 53.989 797.549 53.289Z" fill="#111827"/>
<path fill-rule="evenodd" clip-rule="evenodd" d="M1000.42 35.0664L1004.93 39.6155C1006.07 40.8067 1006.69 42.3985 1006.67 44.0477C1006.64 45.6969 1005.98 47.2713 1004.82 48.4315L1000.4 52.9442C1000.4 52.9533 1000.41 52.9624 1000.42 52.9715H1000.41C1000.41 52.9638 1000.4 52.9561 1000.39 52.9484L1000.36 52.9806L995.903 57.475C995.323 58.0615 994.633 58.5268 993.875 58.8443C993.116 59.1618 992.303 59.3253 991.481 59.3253C990.66 59.3253 989.847 59.1618 989.088 58.8443C988.329 58.5268 987.64 58.0615 987.06 57.475L982.657 53.0351L978.146 48.4861C976.975 47.3025 976.318 45.6994 976.318 44.028C976.318 42.3567 976.975 40.7536 978.146 39.57L982.657 35.0664L987.114 30.5174C988.288 29.3373 989.878 28.6747 991.536 28.6747C993.193 28.6747 994.783 29.3373 995.957 30.5174L1000.42 35.0664ZM1000.27 52.8196C998.038 50.4658 996.794 47.3327 996.799 44.0725C996.804 40.7416 998.113 37.5475 1000.44 35.1847C998.093 37.5448 994.914 38.8701 991.599 38.8701C988.325 38.8701 985.182 37.5773 982.844 35.2716C983.968 36.4022 984.866 37.7412 985.488 39.2153C986.126 40.7274 986.461 42.3519 986.474 43.9951C986.486 45.6383 986.176 47.2677 985.561 48.7896C984.947 50.3114 984.039 51.6956 982.892 52.8623C985.251 50.5722 988.405 49.3019 991.679 49.3223C994.882 49.3423 997.953 50.5951 1000.27 52.8196ZM1067.56 31.0866C1069.73 31.0417 1071.88 31.5911 1073.77 32.6766C1075.55 33.7475 1076.99 35.3113 1077.92 37.1833C1078.96 39.2862 1079.47 41.613 1079.42 43.9615C1079.47 46.2971 1078.95 48.6096 1077.91 50.6942C1076.97 52.559 1075.52 54.1133 1073.73 55.1737C1071.84 56.226 1069.72 56.7779 1067.57 56.7779C1065.41 56.7779 1063.29 56.226 1061.4 55.1737C1059.61 54.0875 1058.17 52.512 1057.24 50.6306C1056.26 48.53 1055.75 46.2352 1055.75 43.9115C1055.75 41.5879 1056.26 39.2931 1057.24 37.1924C1058.18 35.3254 1059.62 33.7656 1061.4 32.6948C1063.27 31.5976 1065.4 31.0412 1067.56 31.0866ZM1070.91 50.5985C1071.91 49.964 1072.7 49.0373 1073.17 47.9412V47.923C1074.2 45.3407 1074.2 42.4551 1073.17 39.8728C1072.7 38.8018 1071.93 37.8902 1070.96 37.2469C1069.94 36.6143 1068.76 36.2984 1067.56 36.3383C1066.37 36.3084 1065.2 36.6238 1064.19 37.2469C1063.21 37.8771 1062.44 38.784 1061.97 39.8546C1060.93 42.4612 1060.93 45.3709 1061.97 47.9775C1062.44 49.0482 1063.21 49.9551 1064.19 50.5852C1065.2 51.2083 1066.37 51.5237 1067.56 51.4938C1068.74 51.5452 1069.91 51.2329 1070.91 50.5985ZM1028.75 31.7136L1023.59 40.1817L1018.42 31.7136H1011.91L1019.81 43.9979L1011.95 56.1095H1018.46L1023.55 47.9503L1028.72 56.1095H1035.24L1027.33 43.9979L1035.24 31.7136H1028.75ZM1056.09 31.7136H1036.48V36.6109H1043.55V56.1095H1049.06V36.6109H1056.09V31.7136ZM1095.84 31.7136V46.5783L1086.73 31.7136H1081.18V56.1095H1086.62V41.1721L1095.7 56.1095H1101.28V31.7136H1095.84Z" fill="#111827"/>
</svg>
