<svg width="265" height="100" viewBox="0 0 265 100" fill="none" xmlns="http://www.w3.org/2000/svg">
<path fill-rule="evenodd" clip-rule="evenodd" d="M187.5 69.7218V63.6077H180.195C178.788 63.6077 178.008 62.751 178.008 61.1542V29.5714H162.057V35.0819H171.207V61.8066C171.207 66.801 174.004 69.7218 178.816 69.7218H187.5ZM153.297 56.3837V64.1724H164.644V69.7218H139.286V64.2113H146.506V47.125H140.019V41.5562H152.983V46.1612H153.354C153.981 44.7437 154.998 43.5435 156.279 42.7069C157.561 41.8702 159.053 41.4332 160.573 41.4491H165.328V48.0889H160.26C155.912 48.0889 153.297 51.3504 153.297 56.3837ZM77.5 41.5561H84.6048L91.1963 61.417H91.5673L98.1021 41.5561H105.368L95.2773 69.7218H87.5917L77.5 41.5561ZM128.253 50.1917C128.117 50.4457 128.382 50.797 128.781 51.3235C129.436 52.1899 130.45 53.5306 130.621 55.6924C131.031 60.755 128.025 64.1431 123.193 64.1431C118.703 64.1431 115.878 60.4047 115.878 55.6924C115.878 49.7732 119.95 45.7134 125.161 45.7134C130.212 45.7134 134.359 49.1306 137.089 51.5548C135.691 45.0513 131.031 40.8454 124.724 40.8454C123.09 40.8031 121.469 41.1767 120.01 41.9328C118.551 42.689 117.298 43.804 116.364 45.1778H115.993V29.6006H109.201V69.7218H115.86V66.139H116.231C117.142 67.5082 118.377 68.6191 119.82 69.3682C121.263 70.1173 122.869 70.48 124.487 70.4227C132.182 70.4227 137.46 64.5325 137.46 55.819C137.46 54.787 137.394 54.1543 137.394 54.1543C134.436 51.6034 128.709 49.2765 128.253 50.1917ZM120.171 60.5557C119.283 59.7601 118.707 58.6617 118.551 57.4644C120.123 57.982 121.813 57.982 123.383 57.4644C124.93 56.8261 126.658 56.8261 128.206 57.4644C128.05 58.6617 127.474 59.7601 126.586 60.5557C125.699 61.3512 124.559 61.7897 123.379 61.7897C122.198 61.7897 121.059 61.3512 120.171 60.5557Z" fill="#111827"/>
</svg>
