<svg width="265" height="100" viewBox="0 0 265 100" fill="none" xmlns="http://www.w3.org/2000/svg">
<path fill-rule="evenodd" clip-rule="evenodd" d="M73.4953 24H96.9863C104.716 24 110.982 30.3289 110.982 38.1359V61.8641C110.982 69.6711 104.716 76 96.9863 76H73.4953C65.7655 76 59.5 69.6711 59.5 61.8641V38.1359C59.5 30.3289 65.7655 24 73.4953 24ZM74.8201 40.2468C72.4785 42.8091 70.9954 46.2449 70.9954 50V64.3884H81.2452V60.5936H74.8201L74.7685 50L74.8201 40.2468ZM99.4775 51.9289H95.6578C94.7566 56.8586 90.4619 60.5936 85.2999 60.5936H85.0171V64.3884H85.2999C92.5508 64.3884 98.5411 58.9634 99.4775 51.9289ZM99.4863 48.1343C98.5763 41.0693 92.5722 35.6116 85.2999 35.6116C82.8553 35.6116 80.5539 36.2286 78.5417 37.3161V41.8756C80.3704 40.3344 82.7283 39.4064 85.2999 39.4064C90.4845 39.4064 94.7931 43.1733 95.6691 48.1343H99.4863ZM130.976 64.4163V35.5845H137.341V59.1313H148.821V64.4163H130.976ZM153.7 35.5845V64.4163H160.085V35.5845H153.7ZM173.36 64.4163H167.094V35.5845H183.552V40.8302H173.36V47.8902H182.83V53.1361H173.36V64.4163ZM188.963 64.4163H205.5V59.1114H195.328V52.0711H204.777V46.8254H195.328V40.8302H205.5V35.5845H188.963V64.4163Z" fill="#111827"/>
</svg>
