<svg width="265" height="100" viewBox="0 0 265 100" fill="none" xmlns="http://www.w3.org/2000/svg">
<path fill-rule="evenodd" clip-rule="evenodd" d="M60.3692 46.5568L60.4146 41.2461L53.1228 33.6722L31.7727 33.482L31.6944 42.6385L48.7387 42.7903L51.4064 45.5613L51.3202 55.6334L60.3692 46.5568ZM31.602 53.4432L31.5566 58.7539L35.2025 62.5409L38.8484 66.3278L60.1985 66.518L60.2768 57.3615L43.2326 57.2097L40.5649 54.4387L40.651 44.3666L31.602 53.4432ZM188.663 61.9307C187.224 61.9179 185.93 61.5276 184.779 60.76C183.628 59.9924 182.722 58.8712 182.06 57.3964C181.399 55.9101 181.077 54.0998 181.095 51.9655C181.114 49.7623 181.478 47.9294 182.187 46.4669C182.897 45.0043 183.833 43.9167 184.996 43.2041C186.16 42.48 187.427 42.1241 188.798 42.1363C189.854 42.1457 190.735 42.3372 191.44 42.7106C192.144 43.0727 192.713 43.5253 193.147 44.0685C193.581 44.6118 193.908 45.1483 194.128 45.6781L194.279 45.6795L194.362 36.0234L199.587 36.0699L199.367 61.7162L194.227 61.6704L194.253 58.5894L194.018 58.5873C193.777 59.1131 193.43 59.6378 192.976 60.1617C192.522 60.674 191.94 61.0993 191.229 61.4372C190.529 61.7752 189.674 61.9397 188.663 61.9307ZM190.334 57.711C191.176 57.7186 191.892 57.4897 192.48 57.0244C193.08 56.5478 193.535 55.8862 193.846 55.0398C194.167 54.1934 194.333 53.2023 194.343 52.0663C194.353 50.9188 194.21 49.9249 193.913 49.0845C193.617 48.2326 193.173 47.5746 192.582 47.1103C191.99 46.6345 191.273 46.3929 190.431 46.3854C189.576 46.3778 188.855 46.6124 188.267 47.0891C187.678 47.5658 187.229 48.2274 186.919 49.0738C186.608 49.9088 186.448 50.8828 186.439 51.9959C186.429 53.1089 186.572 54.0971 186.868 54.9604C187.164 55.8123 187.602 56.4818 188.182 56.9689C188.774 57.4562 189.491 57.7036 190.334 57.711ZM115.805 45.101C116.164 43.9107 116.75 43.015 117.564 42.4141C118.379 41.8016 119.308 41.5001 120.353 41.5094C120.623 41.5118 120.904 41.5315 121.196 41.5686C121.499 41.5942 121.768 41.6425 122.004 41.7134L121.963 46.4296C121.717 46.3471 121.375 46.2809 120.936 46.2311C120.51 46.17 120.111 46.1377 119.74 46.1344C118.988 46.1277 118.307 46.2938 117.697 46.6326C117.087 46.96 116.606 47.4262 116.252 48.0312C115.91 48.6249 115.735 49.3119 115.729 50.0922L115.636 60.9704L110.428 60.924L110.593 41.6806L115.632 41.7256L115.603 45.0992L115.805 45.101ZM94.5585 59.9564C95.9561 60.7721 97.6214 61.1886 99.5541 61.2058C101.105 61.2196 102.472 60.9908 103.656 60.5194C104.84 60.0364 105.806 59.3623 106.555 58.4968C107.315 57.6199 107.819 56.5916 108.065 55.4118L103.248 55.0418C103.075 55.5108 102.813 55.9101 102.462 56.2398C102.122 56.5696 101.715 56.8184 101.242 56.9863C100.768 57.1542 100.24 57.2356 99.6553 57.2304C98.8127 57.2229 98.0669 57.0212 97.419 56.6252C96.7816 56.2178 96.2865 55.6454 95.9332 54.9078C95.6155 54.2339 95.4443 53.4406 95.4196 52.5278L108.257 52.6421L108.269 51.1963C108.283 49.5554 108.071 48.1248 107.632 46.9044C107.193 45.6726 106.573 44.6515 105.771 43.841C104.969 43.0191 104.029 42.4026 102.954 41.9913C101.879 41.5686 100.718 41.3517 99.4711 41.3406C97.628 41.3242 96.0178 41.7287 94.6398 42.5542C93.2731 43.3797 92.2069 44.535 91.4414 46.02C90.687 47.5052 90.3014 49.2346 90.2846 51.2082C90.2672 53.2392 90.6229 55.004 91.3517 56.5023C92.0919 57.9892 93.1608 59.1406 94.5585 59.9564ZM95.472 49.2404C95.5365 48.6092 95.6888 48.0368 95.929 47.5232C96.2495 46.8374 96.7035 46.2964 97.2909 45.9C97.8905 45.5037 98.6168 45.3093 99.4705 45.317C100.325 45.3246 101.036 45.5317 101.606 45.9384C102.187 46.3338 102.621 46.8942 102.907 47.6197C103.104 48.123 103.233 48.6865 103.289 49.3101L95.472 49.2404ZM79.69 56.2435L88.4331 44.9776L88.463 41.4836L73.2774 41.3483L73.2409 45.6169L82.1568 45.6963L82.1556 45.834L72.8367 57.4046L72.8095 60.5889L88.6188 60.7297L88.6552 56.461L79.6888 56.3812L79.69 56.2435ZM126.076 60.2027C127.462 61.0413 129.105 61.469 131.004 61.486C132.914 61.503 134.563 61.1046 135.953 60.2906C137.353 59.4654 138.431 58.316 139.185 56.8423C139.95 55.3573 140.342 53.6279 140.359 51.6542C140.376 49.6576 140.014 47.9158 139.274 46.4289C138.545 44.9306 137.487 43.7621 136.101 42.9235C134.726 42.0735 133.084 41.64 131.174 41.623C129.275 41.6061 127.625 42.0102 126.225 42.8355C124.836 43.6494 123.758 44.7988 122.992 46.2838C122.238 47.7575 121.853 49.4926 121.836 51.4892C121.819 53.463 122.175 55.199 122.904 56.6973C123.644 58.1842 124.701 59.3527 126.076 60.2027ZM133.254 56.6001C132.665 57.0884 131.938 57.3286 131.073 57.3209C130.197 57.3131 129.463 57.0598 128.871 56.5611C128.291 56.051 127.854 55.3586 127.558 54.4838C127.273 53.6091 127.135 52.6152 127.145 51.5021C127.155 50.3776 127.309 49.3863 127.609 48.5283C127.919 47.6704 128.369 46.9974 128.958 46.5091C129.557 46.021 130.295 45.7808 131.172 45.7886C132.037 45.7964 132.759 46.0496 133.339 46.5482C133.919 47.0468 134.352 47.7277 134.637 48.5909C134.933 49.4542 135.076 50.4482 135.066 51.5727C135.057 52.6858 134.896 53.677 134.586 54.5464C134.286 55.4158 133.842 56.1004 133.254 56.6001ZM151.06 61.6646C149.139 61.6475 147.491 61.214 146.116 60.364C144.741 59.5025 143.689 58.3284 142.96 56.8415C142.231 55.3432 141.875 53.6186 141.892 51.6679C141.909 49.6942 142.295 47.9648 143.049 46.4797C143.814 44.9947 144.892 43.8395 146.281 43.0142C147.67 42.1888 149.32 41.7846 151.23 41.8016C152.871 41.8163 154.3 42.1331 155.52 42.7522C156.751 43.3714 157.721 44.235 158.431 45.343C159.141 46.4509 159.523 47.7511 159.577 49.2434L154.656 49.1996C154.571 48.5562 154.385 47.9922 154.097 47.5077C153.809 47.0231 153.425 46.6468 152.944 46.3785C152.463 46.1103 151.902 45.9733 151.262 45.9676C150.453 45.9604 149.743 46.1779 149.133 46.62C148.533 47.0507 148.062 47.6949 147.717 48.5525C147.384 49.3988 147.212 50.43 147.202 51.6464C147.191 52.8627 147.345 53.9084 147.664 54.7834C147.993 55.6584 148.454 56.3282 149.045 56.7924C149.648 57.2568 150.354 57.4926 151.163 57.4998C152.062 57.5078 152.823 57.2277 153.446 56.6595C154.069 56.0798 154.458 55.28 154.613 54.26L159.534 54.3038C159.443 55.7719 159.044 57.0651 158.338 58.1834C157.631 59.2903 156.663 60.1538 155.434 60.774C154.203 61.3828 152.746 61.6796 151.06 61.6646ZM165.279 60.5519C166.665 61.3905 168.308 61.8182 170.207 61.8352C172.117 61.8522 173.766 61.4538 175.156 60.6398C176.556 59.8146 177.633 58.6652 178.387 57.1915C179.153 55.7065 179.544 53.9772 179.561 52.0034C179.578 50.0068 179.217 48.265 178.476 46.7781C177.748 45.2798 176.69 44.1113 175.304 43.2727C173.929 42.4227 172.286 41.9892 170.377 41.9722C168.477 41.9553 166.828 42.3594 165.427 43.1847C164.038 43.9986 162.961 45.148 162.196 46.633C161.441 48.1067 161.056 49.8418 161.038 51.8385C161.022 53.8122 161.378 55.5482 162.106 57.0465C162.847 58.5334 163.904 59.7019 165.279 60.5519ZM172.456 56.9493C171.868 57.4376 171.141 57.6778 170.276 57.6701C169.4 57.6623 168.665 57.409 168.074 56.9103C167.494 56.4002 167.056 55.7078 166.76 54.833C166.476 53.9583 166.338 52.9644 166.348 51.8514C166.357 50.7268 166.512 49.7355 166.811 48.8775C167.122 48.0196 167.571 47.3466 168.161 46.8583C168.76 46.3702 169.498 46.13 170.375 46.1379C171.239 46.1456 171.963 46.3988 172.542 46.8974C173.122 47.396 173.555 48.0769 173.84 48.9401C174.135 49.8034 174.279 50.7974 174.269 51.9219C174.26 53.035 174.1 54.0262 173.789 54.8956C173.489 55.765 173.045 56.4496 172.456 56.9493ZM205.999 60.9491C207.396 61.7648 209.061 62.1812 210.994 62.1985C212.544 62.2123 213.911 61.9835 215.096 61.512C216.28 61.0292 217.246 60.355 217.995 59.4894C218.756 58.6126 219.259 57.5843 219.505 56.4044L214.687 56.0345C214.515 56.5034 214.253 56.9028 213.902 57.2324C213.562 57.5622 213.155 57.811 212.682 57.979C212.208 58.1469 211.68 58.2282 211.095 58.223C210.253 58.2156 209.507 58.0138 208.859 57.6178C208.221 57.2106 207.726 56.6381 207.373 55.9005C207.055 55.2266 206.884 54.4332 206.859 53.5204L219.697 53.6348L219.709 52.189C219.724 50.548 219.511 49.1174 219.072 47.8971C218.633 46.6653 218.012 45.6442 217.21 44.8337C216.408 44.0118 215.47 43.3952 214.394 42.984C213.319 42.5613 212.158 42.3444 210.911 42.3333C209.068 42.3168 207.458 42.7214 206.08 43.5468C204.713 44.3724 203.647 45.5277 202.881 47.0127C202.127 48.4978 201.742 50.2272 201.725 52.2009C201.707 54.232 202.063 55.9966 202.792 57.495C203.532 58.9819 204.601 60.1333 205.999 60.9491ZM206.912 50.2331C206.976 49.602 207.129 49.0295 207.369 48.5158C207.69 47.8302 208.144 47.2891 208.731 46.8927C209.33 46.4964 210.057 46.302 210.91 46.3096C211.765 46.3172 212.476 46.5244 213.046 46.9311C213.627 47.3264 214.06 47.8869 214.346 48.6124C214.544 49.1157 214.672 49.6792 214.729 50.3028L206.912 50.2331ZM227.245 46.0936C227.604 44.9034 228.19 44.0077 229.005 43.4068C229.818 42.7943 230.749 42.4928 231.794 42.5021C232.063 42.5045 232.343 42.5242 232.635 42.5612C232.938 42.5869 233.208 42.6352 233.443 42.7061L233.403 47.4223C233.157 47.3398 232.814 47.2736 232.377 47.2238C231.95 47.1626 231.551 47.1304 231.181 47.1271C230.428 47.1204 229.747 47.2864 229.137 47.6253C228.527 47.9526 228.046 48.4188 227.692 49.0239C227.35 49.6176 227.175 50.3046 227.169 51.0849L227.076 61.963L221.868 61.9167L222.032 42.6733L227.072 42.7182L227.043 46.0918L227.245 46.0936Z" fill="#111827"/>
</svg>
