<svg width="265" height="100" viewBox="0 0 265 100" fill="none" xmlns="http://www.w3.org/2000/svg">
<path fill-rule="evenodd" clip-rule="evenodd" d="M50.7047 28.074C49.2347 28.7365 30.6094 46.6867 29.9416 48.0841C28.3345 51.4473 31.3514 55.0914 35.1562 54.3826C35.8424 54.2548 36.8182 53.6156 38.1205 52.4407C40.4173 50.3684 41.876 49.6421 43.7581 49.6335C45.5567 49.6251 46.6501 50.1033 48.5785 51.74C50.8704 53.6856 53.5791 54.2043 55.8774 53.1377C57.5209 52.3746 65.5164 44.5391 66.2177 43.0038C67.0035 41.2836 66.9659 39.7067 66.0974 37.9761C65.1763 36.1404 57.1701 28.4783 55.5861 27.9166C54.0644 27.377 52.1111 27.4399 50.7047 28.074ZM110.193 47.0425V57.9555H112.072H113.952V47.0425V36.1295H112.072H110.193V47.0425ZM89.8648 42.3393C89.752 42.4516 89.6594 47.3033 89.6594 53.1213V63.6992H91.5392H93.419V60.1094C93.419 56.8076 93.6122 55.9552 94.1606 56.8366C94.5709 57.4957 96.7755 58.23 98.3618 58.2363C101.835 58.2498 104.385 56.7895 105.767 53.9946C107.379 50.7351 106.594 46.1976 104.045 44.0302C101.622 41.9705 97.8513 41.5375 95.0559 42.9978C93.4529 43.8352 93.4529 43.8352 93.3635 43.0696C93.2805 42.3551 93.1674 42.2982 91.6723 42.2195C90.7911 42.1733 89.9779 42.227 89.8648 42.3393ZM121.582 42.4329C121.086 42.5504 120.081 42.9349 119.347 43.2876C118.014 43.9283 118.014 43.9283 118.737 45.3447C119.46 46.7608 119.46 46.7608 120.683 46.1404C122.339 45.3007 125.38 45.0842 126.615 45.7183C127.647 46.2481 128.123 46.9667 128.123 47.9933C128.123 48.6901 128.101 48.6955 124.725 48.8222C119.974 49.0005 118.336 49.8942 117.71 52.6503C117.212 54.8424 118.765 57.2941 121.051 57.9242C123.541 58.6108 127.229 57.9963 128.009 56.7648C128.186 56.486 128.299 56.6198 128.409 57.2375C128.559 58.0818 128.597 58.0991 130.295 58.0991H132.027L132.026 52.499C132.025 47.3963 131.97 46.7814 131.41 45.5755C130.702 44.0532 129.351 42.9283 127.689 42.4774C126.402 42.1282 122.973 42.1032 121.582 42.4329ZM133.923 42.3625C133.931 42.4883 135.479 46.0804 137.361 50.3451C140.783 58.0991 140.783 58.0991 140.163 59.2418C139.233 60.9531 137.843 61.2139 135.35 60.1444C135.037 60.01 134.707 60.3311 134.193 61.2716C133.481 62.5722 133.48 62.5903 134.052 62.9275C136.656 64.4625 140.011 64.2663 141.957 62.4648C142.333 62.1171 142.958 61.2139 143.345 60.4574C144.265 58.6631 151.259 42.6773 151.259 42.3694C151.259 42.2393 150.468 42.1716 149.501 42.2184L147.743 42.3039L145.363 47.8248C144.055 50.8612 142.915 53.4142 142.83 53.4978C142.746 53.5817 141.582 51.0972 140.244 47.977L137.811 42.3039L135.859 42.2189C134.786 42.1724 133.914 42.237 133.923 42.3625ZM153.709 42.5093C153.629 42.7172 153.598 46.3099 153.64 50.4933L153.717 58.0991L155.525 58.1847L157.332 58.2699L157.339 54.0205C157.349 47.848 157.825 46.4411 160.178 45.6155C161.236 45.2444 161.526 45.2444 162.584 45.6155C164.804 46.394 164.978 46.9041 165.099 52.9616L165.205 58.2685L166.98 58.1838L168.756 58.0991L168.9 53.0593C169.02 48.8922 169.133 47.8857 169.555 47.2478C170.651 45.5908 172.758 44.93 174.432 45.7186C176.147 46.527 176.26 46.9265 176.419 52.7862L176.564 58.0991L178.372 58.1847L180.179 58.2699L180.176 52.5846C180.174 47.2363 180.133 46.8136 179.5 45.4621C178.612 43.5699 177.033 42.4688 174.89 42.2494C172.486 42.003 170.826 42.3588 169.148 43.4805C167.653 44.4794 167.653 44.4794 166.903 43.766C165 41.9556 161.671 41.6213 158.978 42.9705C157.361 43.7804 157.361 43.7804 157.274 43.0423C157.194 42.3565 157.069 42.2979 155.521 42.2178C154.345 42.1569 153.812 42.2428 153.709 42.5093ZM184.806 47.5657C184.806 51.7365 184.91 53.275 185.263 54.3013C185.81 55.8961 187.486 57.5029 189.052 57.9348C191.607 58.6393 194.946 58.035 196.085 56.662C196.491 56.1724 196.528 56.2016 196.664 57.1189C196.808 58.0991 196.808 58.0991 198.543 58.0991H200.279V50.2015V42.3039L198.471 42.2184L196.664 42.1331V45.9845C196.664 50.8514 196.334 52.6707 195.258 53.7396C193.615 55.3723 190.606 55.2792 189.317 53.5558C188.762 52.8146 188.703 52.2985 188.62 47.4532L188.53 42.1604H186.668H184.806V47.5657ZM207.583 42.569C205.017 43.4788 203.896 44.8909 203.895 47.2191C203.893 49.8023 205.137 50.7736 209.587 51.6624C211.083 51.9614 212.562 52.341 212.872 52.5062C213.636 52.9122 213.594 54.0808 212.794 54.6365C211.77 55.3493 208.453 55.2195 206.415 54.3872C204.742 53.704 204.742 53.704 204.038 55.0842C203.216 56.6953 203.273 56.7841 205.629 57.5692C206.753 57.9437 208.068 58.0991 210.111 58.0991C212.618 58.0991 213.196 58.0034 214.449 57.3811C216.295 56.4644 217.197 55.1531 217.196 53.3898C217.194 51.7377 216.438 50.4545 215.091 49.8198C214.532 49.5562 212.792 49.0855 211.225 48.7739C209.131 48.3575 208.243 48.0462 207.874 47.5982C207.288 46.8868 207.562 46.1175 208.6 45.5621C209.51 45.0747 212.507 45.1623 213.834 45.7148C214.45 45.9713 215.07 46.1809 215.211 46.1809C215.648 46.1809 216.764 43.6256 216.459 43.3237C215.454 42.3269 209.657 41.8341 207.583 42.569ZM224.249 42.6247C222.542 43.2258 220.696 44.9144 219.908 46.5956C218.885 48.7765 218.936 51.8919 220.029 53.9688C221.864 57.4572 226.569 59.1306 230.901 57.836C232.204 57.4466 234.273 56.1356 234.247 55.7152C234.241 55.6049 233.809 55.0351 233.287 54.4492C232.339 53.3844 232.339 53.3844 231.305 54.115C229.784 55.1899 227.23 55.3702 225.475 54.5265C224.263 53.9441 222.981 52.478 222.981 51.6753C222.981 51.4433 224.774 51.3502 229.241 51.3502H235.5L235.326 49.4979C235.01 46.1347 233.123 43.5722 230.248 42.5992C228.643 42.0561 225.83 42.0682 224.249 42.6247ZM229.265 45.5962C230.416 46.1149 231.653 47.5698 231.656 48.4066C231.657 48.678 230.597 48.7656 227.319 48.7656C224.483 48.7656 222.981 48.6613 222.981 48.464C222.981 47.9931 223.763 46.6091 224.261 46.199C224.829 45.7306 226.702 45.0595 227.463 45.0512C227.782 45.0477 228.592 45.293 229.265 45.5962ZM70.1384 45.7746C69.6612 46.0307 66.6029 48.8575 63.3422 52.0564C60.0815 55.2554 56.985 58.1625 56.4613 58.5169C55.2724 59.321 52.5952 59.6102 51.0448 59.1022C50.4381 58.9032 49.1396 57.9997 48.1592 57.0939C46.1252 55.2149 44.7923 54.6557 43.0453 54.949C41.4356 55.2189 39.6894 56.8369 39.3348 58.3863C38.8114 60.6737 39.2596 61.4089 44.2096 66.3783C49.6197 71.8098 50.5882 72.462 53.2202 72.4485C54.4091 72.4425 55.4314 72.2624 56.0014 71.9583C56.9957 71.4284 74.9348 54.0914 76.0283 52.6038C77.4908 50.6139 77.0324 47.8029 74.9932 46.2585C73.743 45.3113 71.4317 45.081 70.1384 45.7746ZM100.857 46.1232C103.636 48.0881 103.212 53.0688 100.14 54.5455C95.7257 56.6675 91.5809 51.4393 94.3792 47.2788C95.7188 45.2875 98.8777 44.724 100.857 46.1232ZM128.123 52.3743C128.123 53.7086 127.728 54.4001 126.65 54.9535C125.614 55.486 123.242 55.5632 122.358 55.0934C121.606 54.6939 121.16 53.6497 121.382 52.8074C121.653 51.7793 122.832 51.3744 125.593 51.3617C128.123 51.3502 128.123 51.3502 128.123 52.3743Z" fill="#111827"/>
</svg>
