<svg width="265" height="100" viewBox="0 0 265 100" fill="none" xmlns="http://www.w3.org/2000/svg">
<path fill-rule="evenodd" clip-rule="evenodd" d="M88.8916 39.8482L94.0181 45.0176C95.3036 46.3713 96.01 48.1802 95.9851 50.0542C95.9601 51.9283 95.2058 53.7174 93.8848 55.0358L88.8603 60.1639C88.8707 60.1742 88.8811 60.1845 88.8916 60.1949H88.8813C88.8727 60.1861 88.8642 60.1774 88.8556 60.1686L88.8198 60.2052L83.7547 65.3125C83.0956 65.979 82.3126 66.5078 81.4505 66.8686C80.5884 67.2294 79.6642 67.4151 78.7307 67.4151C77.7973 67.4151 76.8731 67.2294 76.0109 66.8686C75.1488 66.5078 74.3658 65.979 73.7067 65.3125L68.7032 60.2672L63.5766 55.0979C62.2467 53.7529 61.5 51.9311 61.5 50.0319C61.5 48.1326 62.2467 46.3109 63.5766 44.9659L68.7032 39.8482L73.7682 34.6789C75.102 33.3379 76.9087 32.5849 78.7923 32.5849C80.6758 32.5849 82.4825 33.3379 83.8163 34.6789L88.8916 39.8482ZM88.7151 60.0224C86.1818 57.3476 84.7675 53.7872 84.7731 50.0824C84.7789 46.2973 86.2664 42.6677 88.9121 39.9827C86.2444 42.6646 82.6311 44.1706 78.864 44.1706C75.1435 44.1706 71.5728 42.7015 68.9151 40.0814C70.1929 41.3662 71.2134 42.8877 71.9201 44.5629C72.6451 46.2812 73.0257 48.1272 73.04 49.9944C73.0543 51.8617 72.702 53.7134 72.0034 55.4428C71.3049 57.1721 70.2738 58.745 68.9697 60.0708C71.651 57.4684 75.2343 56.025 78.9557 56.0481C82.5952 56.0708 86.0852 57.4944 88.7151 60.0224ZM165.185 35.3257C167.654 35.2747 170.091 35.899 172.238 37.1326C174.264 38.3494 175.903 40.1265 176.961 42.2538C178.139 44.6435 178.722 47.2875 178.658 49.9563C178.717 52.6104 178.127 55.2382 176.941 57.6071C175.873 59.7262 174.227 61.4924 172.197 62.6974C170.051 63.8932 167.641 64.5204 165.19 64.5204C162.739 64.5204 160.328 63.8932 158.182 62.6974C156.155 61.4631 154.517 59.6728 153.459 57.5349C152.341 55.1477 151.762 52.54 151.762 49.8995C151.762 47.259 152.341 44.6513 153.459 42.2641C154.521 40.1426 156.159 38.37 158.182 37.1532C160.306 35.9064 162.728 35.2741 165.185 35.3257ZM168.991 57.4983C170.128 56.7773 171.022 55.7242 171.553 54.4786V54.458C172.726 51.5236 172.726 48.2444 171.553 45.31C171.02 44.093 170.15 43.0571 169.049 42.3261C167.889 41.6072 166.545 41.2482 165.185 41.2936C163.835 41.2596 162.504 41.618 161.351 42.3261C160.24 43.0422 159.361 44.0727 158.826 45.2894C157.649 48.2514 157.649 51.5579 158.826 54.5199C159.361 55.7366 160.24 56.7672 161.351 57.4832C162.504 58.1913 163.835 58.5497 165.185 58.5157C166.526 58.5741 167.854 58.2193 168.991 57.4983ZM121.083 36.0382L115.215 45.6611L109.347 36.0382H101.946L110.921 49.9976L101.986 63.7609H109.388L115.174 54.489L121.042 63.7609H128.454L119.468 49.9976L128.454 36.0382H121.083ZM152.15 36.0382H129.864V41.6034H137.9V63.7609H144.156V41.6034H152.15V36.0382ZM197.325 36.0382V52.9299L186.97 36.0382H180.662V63.7609H186.847V46.7865L197.162 63.7609H203.5V36.0382H197.325Z" fill="#111827"/>
</svg>
