<svg width="60" height="60" viewBox="0 0 60 60" fill="none" xmlns="http://www.w3.org/2000/svg">
<path opacity="0.2" fill-rule="evenodd" clip-rule="evenodd" d="M29.3419 6.96167C15.9018 6.96167 4.9668 17.8967 4.9668 31.3367C4.9668 44.7767 15.9018 55.7117 29.3419 55.7117C42.7819 55.7117 53.7169 44.7767 53.7169 31.3367C53.7169 17.8967 42.7819 6.96167 29.3419 6.96167Z" fill="#284BFB"/>
<path fill-rule="evenodd" clip-rule="evenodd" d="M56.2834 15.8993L54.6654 16.847C47.2101 21.2143 41.4466 26.9687 37.5366 31.6587C35.5856 33.999 34.1066 36.0615 33.1189 37.5327C32.6254 38.2677 32.2551 38.8545 32.0109 39.2527C31.8889 39.452 31.7981 39.6042 31.7394 39.7042L31.6749 39.8145L31.6606 39.8392L31.6586 39.8432L31.1204 40.7958H28.9399L28.3846 39.9563L28.3786 39.947L28.3511 39.906C28.3254 39.8683 28.2854 39.8097 28.2316 39.7325C28.1241 39.5782 27.9616 39.3492 27.7494 39.0625C27.3241 38.488 26.7024 37.6847 25.9241 36.7825C24.3522 34.9602 22.2104 32.8142 19.8212 31.3037L18.2363 30.3017L20.2402 27.132L21.8251 28.134C24.6584 29.9252 27.0791 32.3802 28.7636 34.3332C29.1699 34.8042 29.5374 35.2505 29.8616 35.6577C29.9084 35.5872 29.9564 35.5155 30.0054 35.4425C31.0536 33.8813 32.6096 31.7125 34.6564 29.2575C38.7416 24.3572 44.8239 18.266 52.7699 13.6113L54.3879 12.6636L56.2834 15.8993Z" fill="#284BFB"/>
</svg>
