<svg width="120" height="120" viewBox="0 0 120 120" fill="none" xmlns="http://www.w3.org/2000/svg">
<mask id="path-1-inside-1_4262_11007" fill="white">
<path d="M0 60C0 26.8629 26.8629 0 60 0V0C93.1371 0 120 26.8629 120 60V60C120 93.1371 93.1371 120 60 120V120C26.8629 120 0 93.1371 0 60V60Z"/>
</mask>
<path d="M0 60C0 26.8629 26.8629 0 60 0V0C93.1371 0 120 26.8629 120 60V60C120 93.1371 93.1371 120 60 120V120C26.8629 120 0 93.1371 0 60V60Z" fill="url(#paint0_linear_4262_11007)"/>
<path d="M0 59C0 25.8629 26.8629 -1 60 -1C93.1371 -1 120 25.8629 120 59V60C120 27.4152 93.1371 1 60 1C26.8629 1 0 27.4152 0 60V59ZM120 120H0H120ZM0 120V0V120ZM120 0V120V0Z" fill="white" mask="url(#path-1-inside-1_4262_11007)"/>
<path d="M72 53.0718C77.3333 56.151 80 57.6906 80 60C80 62.3094 77.3333 63.849 72 66.9282L60 73.8564C54.6667 76.9356 52 78.4752 50 77.3205C48 76.1658 48 73.0866 48 66.9282L48 53.0718C48 46.9134 48 43.8342 50 42.6795C52 41.5248 54.6667 43.0644 60 46.1436L72 53.0718Z" fill="#284AFB"/>
<defs>
<linearGradient id="paint0_linear_4262_11007" x1="0" y1="0" x2="0" y2="120" gradientUnits="userSpaceOnUse">
<stop stop-color="#E8EBF7"/>
<stop offset="1" stop-color="white"/>
</linearGradient>
</defs>
</svg>
