<svg width="171" height="40" viewBox="0 0 171 40" fill="none" xmlns="http://www.w3.org/2000/svg">
<g clip-path="url(#clip0_504_10927)">
<path fill-rule="evenodd" clip-rule="evenodd" d="M132.668 30.6252V8.5752H136.267V30.6252H132.668ZM145.21 30.5124L142.558 37.8252H145.932L154.92 14.4252H151.321L146.941 26.0182L142.439 14.4252H138.692L145.21 30.5124ZM160.953 22.4352L155.056 30.6252H159.296L163.043 25.2702L166.761 30.6252H171L165.073 22.4352L170.851 14.4252H166.611L163.043 19.6002L159.415 14.4252H155.176L160.953 22.4352ZM117.018 30.4152C117.824 30.8552 118.809 31.0752 119.974 31.0752C121.427 31.0752 122.636 30.8052 123.601 30.2652C124.351 29.842 125.028 29.2354 125.631 28.4452V30.6252H128.781V20.6802C128.781 19.9802 128.752 19.3352 128.692 18.7452C128.633 18.1452 128.458 17.5602 128.169 16.9902C127.643 15.9202 126.831 15.1502 125.736 14.6802C124.651 14.2102 123.392 13.9752 121.959 13.9752C120.058 13.9752 118.546 14.3902 117.421 15.2202C116.306 16.0502 115.55 17.1502 115.152 18.5202L118.436 19.5552C118.705 18.7252 119.178 18.1402 119.854 17.8002C120.531 17.4602 121.233 17.2902 121.959 17.2902C123.163 17.2902 124.019 17.5552 124.527 18.0852C124.95 18.5264 125.193 19.172 125.256 20.0221C124.604 20.1201 123.967 20.2145 123.348 20.3052C122.333 20.4452 121.387 20.6002 120.511 20.7702C119.645 20.9402 118.889 21.1302 118.242 21.3402C117.386 21.6302 116.69 22.0052 116.152 22.4652C115.615 22.9152 115.217 23.4552 114.958 24.0852C114.699 24.7052 114.57 25.4052 114.57 26.1852C114.57 27.0752 114.774 27.8902 115.182 28.6302C115.6 29.3702 116.212 29.9652 117.018 30.4152ZM122.78 27.7602C122.203 28.0502 121.506 28.1952 120.69 28.1952C120.123 28.1952 119.645 28.1052 119.257 27.9252C118.879 27.7452 118.59 27.5052 118.391 27.2052C118.192 26.8952 118.093 26.5402 118.093 26.1402C118.093 25.7902 118.168 25.4852 118.317 25.2252C118.476 24.9652 118.7 24.7352 118.989 24.5352C119.277 24.3352 119.63 24.1602 120.048 24.0102C120.476 23.8702 120.969 23.7452 121.526 23.6352C122.084 23.5152 122.75 23.3902 123.527 23.2602C124.023 23.177 124.583 23.0856 125.206 22.9861C125.199 23.2617 125.187 23.5781 125.169 23.9352C125.149 24.5252 125.044 25.0502 124.856 25.5102C124.736 25.8802 124.503 26.2752 124.153 26.6952C123.815 27.1152 123.358 27.4702 122.78 27.7602ZM104.219 30.6252V14.4252H107.399V17.0127C107.52 16.7952 107.655 16.5877 107.802 16.3902C108.14 15.9402 108.543 15.5702 109.011 15.2802C109.409 15.0102 109.847 14.8002 110.325 14.6502C110.812 14.4902 111.31 14.3952 111.818 14.3652C112.325 14.3252 112.818 14.3452 113.296 14.4252V17.8002C112.818 17.6602 112.265 17.6152 111.638 17.6652C111.021 17.7152 110.464 17.8902 109.966 18.1902C109.469 18.4602 109.061 18.8052 108.742 19.2252C108.434 19.6452 108.205 20.1252 108.056 20.6652C107.906 21.1952 107.832 21.7702 107.832 22.3902V30.6252H104.219ZM97.9145 30.8802C98.9396 30.9102 99.9845 30.8252 101.049 30.6252V27.5952C100.044 27.7452 99.1485 27.7852 98.3623 27.7152C97.5761 27.6452 97.0038 27.3102 96.6456 26.7102C96.4565 26.4002 96.352 26.0002 96.3321 25.5102C96.3222 25.0202 96.3171 24.4502 96.3171 23.8002V17.2602H101.049V14.4252H96.3171V9.92522H92.7344V14.4252H89.8084V17.2602H92.7344V24.0102C92.7344 24.9302 92.7443 25.7552 92.7643 26.4852C92.7841 27.2152 92.9781 27.9302 93.3464 28.6302C93.7644 29.4002 94.3765 29.9652 95.1825 30.3252C95.9887 30.6752 96.8994 30.8602 97.9145 30.8802ZM81.9718 31.0752C79.9814 31.0752 78.3641 30.6252 77.1201 29.7252C75.876 28.8252 75.1197 27.5602 74.851 25.9302L78.5233 25.3602C78.7124 26.1602 79.1305 26.7902 79.7773 27.2502C80.4243 27.7102 81.2403 27.9402 82.2256 27.9402C83.0914 27.9402 83.7583 27.7702 84.2259 27.4302C84.7037 27.0802 84.9425 26.6052 84.9425 26.0052C84.9425 25.6352 84.8529 25.3402 84.6739 25.1202C84.5046 24.8902 84.1264 24.6702 83.5393 24.4602C82.9521 24.2502 82.0514 23.9852 80.8373 23.6652C79.4838 23.3052 78.4089 22.9202 77.6128 22.5102C76.8165 22.0902 76.2443 21.5952 75.896 21.0252C75.5477 20.4552 75.3736 19.7652 75.3736 18.9552C75.3736 17.9452 75.6373 17.0652 76.1647 16.3152C76.6921 15.5652 77.4287 14.9902 78.3741 14.5902C79.3196 14.1802 80.4342 13.9752 81.718 13.9752C82.972 13.9752 84.0817 14.1702 85.047 14.5602C86.0223 14.9502 86.8085 15.5052 87.4056 16.2252C88.0028 16.9452 88.3711 17.7902 88.5103 18.7602L84.838 19.4202C84.7485 18.7302 84.435 18.1852 83.8975 17.7852C83.37 17.3852 82.6635 17.1602 81.7778 17.1102C80.9318 17.0602 80.25 17.1902 79.7326 17.5002C79.215 17.8002 78.9563 18.2252 78.9563 18.7752C78.9563 19.0852 79.0608 19.3502 79.2698 19.5702C79.4788 19.7902 79.8968 20.0102 80.5238 20.2302C81.1607 20.4502 82.1061 20.7202 83.3601 21.0402C84.644 21.3702 85.669 21.7502 86.4354 22.1802C87.2116 22.6002 87.769 23.1052 88.1074 23.6952C88.4557 24.2852 88.6298 25.0002 88.6298 25.8402C88.6298 27.4702 88.0376 28.7502 86.8534 29.6802C85.6789 30.6102 84.0518 31.0752 81.9718 31.0752ZM61.2989 9.02518L54.5215 30.6251H58.2236L59.6909 25.9451H68.1586L69.6438 30.6251H73.346L66.5686 9.02518H61.2989ZM67.0875 22.5701L63.8988 12.523L60.749 22.5701H67.0875Z" fill="white"/>
<path fill-rule="evenodd" clip-rule="evenodd" d="M12.6802 10.5913C15.0292 8.87006 15.5499 5.55436 13.8433 3.18539L17.1244 0.781252C20.1477 4.97775 19.2252 10.8513 15.0641 13.9002L15.0641 13.9002C10.9028 16.9492 5.07875 16.0189 2.05546 11.8224L5.33661 9.41824C7.04333 11.7873 10.3311 12.3124 12.6802 10.5913ZM1.64544 20.8051C4.40689 19.9003 7.37288 21.4243 8.27017 24.2092C9.1674 26.9942 7.65616 29.9853 4.89471 30.8902L6.14796 34.7801C11.0398 33.1772 13.7167 27.8786 12.1274 22.9453L12.1274 22.9453C10.5379 18.012 5.28388 15.3123 0.392185 16.9152L1.64544 20.8051ZM19.7499 32.6472C22.6535 32.6472 25.0073 35.021 25.0073 37.9492L29.063 37.9492C29.063 32.7621 24.8934 28.5571 19.7499 28.5571C14.6064 28.5571 10.4368 32.7621 10.4368 37.9492L14.4925 37.9492C14.4925 35.021 16.8463 32.6472 19.7499 32.6472ZM26.8854 10.6129C24.5364 8.89165 24.0156 5.57592 25.7223 3.20695L22.4412 0.802813C19.4179 4.99931 20.3404 10.8729 24.5015 13.9218L24.5016 13.9218C28.6628 16.9707 34.4869 16.0404 37.5102 11.844L34.229 9.43982C32.5223 11.8088 29.2345 12.334 26.8854 10.6129ZM37.8795 20.84C35.118 19.9351 32.152 21.4592 31.2548 24.2441L31.2548 24.2442C30.3575 27.029 31.8687 30.0202 34.6303 30.9251L33.377 34.815C28.4852 33.2121 25.8081 27.9135 27.3976 22.9802C28.987 18.0469 34.241 15.3471 39.1328 16.9501L37.8795 20.84Z" fill="white"/>
</g>
<defs>
<clipPath id="clip0_504_10927">
<rect width="171" height="40" fill="white"/>
</clipPath>
</defs>
</svg>
